<?xml version="1.0" encoding="utf-8"?>
<!-- Generator: Adobe Illustrator 26.0.3, SVG Export Plug-In . SVG Version: 6.00 Build 0)  -->
<svg version="1.1" id="Calque_2_00000101099615769942509330000002904210157451843759_"
	 xmlns="http://www.w3.org/2000/svg" xmlns:xlink="http://www.w3.org/1999/xlink" x="0px" y="0px" viewBox="0 0 316.6 285.5"
	 style="enable-background:new 0 0 316.6 285.5;" xml:space="preserve">
<style type="text/css">
	.st0{fill:#13AFD3;}
	.st1{fill:#A0DCEA;}
	.st2{fill:#F1F1F1;}
</style>
<g>
	<path class="st0" d="M310.5,0l-42,1.5c-0.4,0-1,0-1.4,0.2l-76.8,25c-9.5,3.2-19.6,4.3-29.6,3.5L108.5,26c-3.7-0.4-7.6,0.4-11.1,1.9
		L43.7,52c-8,3.5-15.8,7.8-23.1,12.8L2.7,76.7c-5.3,3.5-2.3,13,3.7,12.2l38.1-5.8c0.2,0,0.2,0,0.4,0l35.8-2.8
		c6-0.4,8.6,8.9,3.3,12.2l-21.2,13.9c-2.7,1.9-3.5,5.8-1.9,8.9l0,0c1.6,3.2,0.8,7.2-2.1,8.9l-17.7,11.1c-2.7,1.7-3.7,5.8-2.1,8.9
		l30.7,60.5c1.6,3.2,5.1,4.3,7.8,2.4L95,195.2c2.7-1.9,6-0.7,7.8,2.4l1.4,2.6c1.6,3.2,5.1,4.3,7.8,2.4l21.2-13.9
		c5.1-3.3,10.9,3.9,7.6,9.5l-20,34.3l-23.9,36.7c-3.7,5.6,2.1,13.2,7.4,9.8l17.1-11.3c8.6-5.6,16.7-12.2,24.3-19.5l42.6-41
		c3.1-3,5.6-6.7,7.4-10.9l23.5-54c4.1-9.5,9.5-18,15.9-25.4l57-66.2c0.2-0.4,0.4-0.6,0.8-0.9l22.9-39.5C318.1,5.9,315.2-0.2,310.5,0
		z"/>
	<path class="st1" d="M290.3,36.9h-40.5c-0.2,0-0.4,0-0.6,0l-65.9,20c-8,2.4-16.1,3.2-24.7,2l-45.7-5.8c-2.9-0.4-5.8,0-8.6,1.1
		l-45.9,20c-6.6,2.8-13,6.3-19.3,10.4l-24.1,16c-2.5,1.7-1,6.7,2.1,6.3l42.8-5h0.2l39.7-1.7c2.9-0.2,4.3,4.6,1.9,6.3l-27,17.8
		c-1.4,0.9-1.8,3-0.8,4.5l2.3,4.5c0.8,1.7,0.4,3.7-1,4.6l-18.7,12c-1.4,0.9-1.8,3-1,4.6l30.1,59.4c0.8,1.7,2.5,2.2,3.9,1.5
		l18.1-12.2c1.4-0.9,3.1-0.2,3.9,1.5l3.3,6.7c0.8,1.7,2.5,2.2,3.9,1.5l27.2-18c2.5-1.7,5.4,2.2,3.9,5l-21,38.6l-25.3,41.4
		c-1.8,2.8,1.2,6.9,3.7,5.2l23.1-15.2c7-4.6,13.8-10.2,20-16.3l35.8-35.6c2.3-2.4,4.3-5.4,5.6-8.7l19.1-48.2
		c3.1-8,7.4-15.4,12.6-21.5l48.2-57.7c0.2-0.2,0.2-0.4,0.4-0.6l20.8-38.8C294.2,40.1,292.6,36.9,290.3,36.9z"/>
</g>
<path class="st2" d="M51.9,256"/>
</svg>
